<?xml version="1.0" standalone="no"?>
<!DOCTYPE svg PUBLIC "-//W3C//DTD SVG 20010904//EN"
 "http://www.w3.org/TR/2001/REC-SVG-20010904/DTD/svg10.dtd">
<svg version="1.0" xmlns="http://www.w3.org/2000/svg"
 width="700.000000pt" height="700.000000pt" viewBox="0 0 700.000000 700.000000"
 preserveAspectRatio="xMidYMid meet">
<metadata>
Created by potrace 1.14, written by Peter Selinger 2001-2017
</metadata>
<g transform="translate(0.000000,700.000000) scale(0.100000,-0.100000)"
fill="#000000" stroke="none">
<path d="M3185 6989 c-1393 -129 -2583 -1078 -3015 -2404 -255 -785 -223
-1653 90 -2414 389 -947 1184 -1685 2155 -2001 519 -169 1089 -214 1630 -129
1454 228 2618 1354 2894 2799 54 287 75 650 52 935 -126 1573 -1280 2862
-2831 3164 -210 41 -330 52 -605 56 -148 2 -315 -1 -370 -6z m605 -624 c512
-63 1001 -241 1392 -507 632 -430 1168 -1324 1284 -2143 26 -182 27 -672 1
-819 -56 -320 -172 -650 -369 -1058 l-91 -187 -156 -50 c-293 -93 -444 -134
-680 -186 -90 -20 -172 -35 -181 -33 -14 2 -8 20 37 98 184 319 320 681 368
974 34 207 29 464 -15 765 -86 584 -343 1056 -869 1594 -296 303 -569 496
-801 568 -94 29 -233 32 -330 5 -239 -65 -504 -232 -758 -481 -274 -266 -468
-538 -661 -923 -326 -652 -399 -1083 -280 -1662 58 -286 208 -665 346 -875 32
-49 62 -95 66 -101 25 -41 -697 165 -951 272 l-94 39 -69 117 c-240 403 -397
863 -440 1283 -35 349 31 873 163 1284 109 343 300 690 520 946 200 232 514
513 752 672 121 81 386 217 511 262 346 125 936 191 1305 146z m-251 -1309
c42 -140 119 -231 391 -462 168 -142 262 -234 317 -310 55 -76 122 -224 149
-330 33 -132 33 -134 -15 -134 -56 0 -176 -25 -244 -50 -132 -49 -297 -192
-391 -337 -90 -140 -139 -292 -153 -477 -5 -62 -12 -101 -20 -103 -18 -6 -42
87 -58 232 -9 71 -22 157 -30 190 -31 123 -122 272 -236 384 -199 196 -503
270 -889 217 -63 -9 -118 -16 -122 -16 -8 0 39 82 167 293 136 226 189 292
405 507 261 262 396 365 573 437 45 18 94 33 108 33 24 0 28 -6 48 -74z m-729
-1461 c189 -59 334 -188 397 -355 27 -71 32 -91 49 -229 8 -68 14 -203 14
-326 0 -309 -26 -471 -112 -708 -35 -96 -41 -124 -41 -192 0 -95 25 -190 53
-205 30 -16 52 0 113 87 91 131 373 391 577 535 36 25 146 92 245 148 385 220
507 314 609 468 119 180 164 306 121 342 -21 18 -85 16 -122 -3 l-31 -16 -4
117 c-5 120 -19 175 -61 235 -29 42 -14 44 47 7 97 -59 401 -343 411 -384 10
-39 -181 -452 -326 -706 -470 -822 -1026 -1242 -1564 -1179 -186 22 -433 3
-601 -46 -17 -5 -31 7 -75 62 -310 385 -534 898 -589 1353 -28 232 6 455 97
640 39 78 63 110 133 181 68 69 102 94 170 128 47 23 114 48 150 56 83 19 264
13 340 -10z"/>
<path d="M2858 3308 c-21 -5 -57 -27 -80 -48 -40 -35 -43 -42 -43 -86 0 -56
36 -115 92 -154 28 -19 40 -21 90 -15 116 14 193 71 193 143 0 31 -8 44 -55
88 -46 44 -128 88 -154 83 -3 -1 -23 -6 -43 -11z"/>
</g>
</svg>
