<?xml version="1.0" encoding="UTF-8" standalone="no"?>
<!-- Created with Inkscape (http://www.inkscape.org/) -->

<svg
   version="1.1"
   id="svg2"
   width="757.13037"
   height="547.41443"
   viewBox="0 0 757.13038 547.41443"
   sodipodi:docname="logo_dark.svg"
   inkscape:version="1.1.2 (b8e25be833, 2022-02-05)"
   xmlns:inkscape="http://www.inkscape.org/namespaces/inkscape"
   xmlns:sodipodi="http://sodipodi.sourceforge.net/DTD/sodipodi-0.dtd"
   xmlns="http://www.w3.org/2000/svg"
   xmlns:svg="http://www.w3.org/2000/svg">
  <defs
     id="defs6" />
  <sodipodi:namedview
     id="namedview4"
     pagecolor="#505050"
     bordercolor="#eeeeee"
     borderopacity="1"
     inkscape:pageshadow="0"
     inkscape:pageopacity="0"
     inkscape:pagecheckerboard="0"
     showgrid="false"
     fit-margin-top="0"
     fit-margin-left="0"
     fit-margin-right="0"
     fit-margin-bottom="0"
     inkscape:zoom="1.5033556"
     inkscape:cx="357.8661"
     inkscape:cy="377.82145"
     inkscape:window-width="2496"
     inkscape:window-height="1558"
     inkscape:window-x="-11"
     inkscape:window-y="-11"
     inkscape:window-maximized="1"
     inkscape:current-layer="g999" />
  <g
     inkscape:groupmode="layer"
     id="layer1"
     inkscape:label="Layer"
     style="display:inline"
     transform="translate(1.8754569,4.6001735)">
    <path
       style="fill:#fbfffd;stroke:none;stroke-width:1px;stroke-linecap:butt;stroke-linejoin:miter;stroke-opacity:1;fill-opacity:1"
       d="m 378.60671,129.76591 -59.2009,27.9375 -69.17857,115.0759 -6.65179,92.45983 59.2009,118.4018 144.34376,3.32589 67.18304,-117.07144 -12.6384,-122.39286 -75.83036,-95.12055 -43.90179,-20.62053 z"
       id="path1476" />
    <path
       d="m 751.25882,515.07695 c 6.40564,0.72879 -5.45071,3.17083 0,0 z M 375.15691,481.6919 c -133.60562,3.21349 -90.28261,-43.43629 -18.29516,-33.44036 72.27446,2.03138 123.39129,-94.33285 146.34435,-152.97902 38.73327,23.64871 -15.36707,119.16601 -38.66633,148.55852 -6.49373,8.19198 -10.42939,21.18599 -19.07362,26.52088 -19.20005,11.84953 -46.58501,10.76936 -70.30924,11.33998 z M 405.3314,348.44209 c -34.85653,-29.94847 1.89984,-78.46011 32.67364,-87.59259 19.69118,-5.84358 36.9329,6.89112 31.39653,42.89093 -11.17285,25.36787 -38.60292,38.4063 -64.07017,44.70166 z M 380.47674,149.97416 c -15.81997,-49.052 10.23178,-32.57114 66.74063,19.82617 30.67526,28.44335 62.51598,85.92484 55.23919,101.29255 -3.05846,6.45911 -19.0263,-9.77024 -25.94369,-14.60732 -8.44677,-5.90651 -26.17863,-4.33163 -26.22234,-4.76532 -3.34422,-33.17662 -16.00822,-46.19605 -23.14448,-53.85924 -11.08215,-11.90045 -41.24428,-31.06579 -46.66931,-47.88684 z"
       style="fill:#00e396;fill-opacity:1"
       id="path20691"
       sodipodi:nodetypes="ccsscssscsccsssssss" />
    <g
       id="g999">
      <path
         d="m 314.85964,471.3163 c -14.2247,-11.86808 -27.3424,-28.08837 -38.25077,-46.18267 -1.7708,-2.93732 -6.27432,-10.96871 -6.27432,-10.96871 l -12.14894,8.2565 c 0,0 4.92172,7.91415 5.90885,9.36761 2.89995,4.26983 9.08682,12.53792 9.08682,12.53792 0,0 -4.25243,2.24729 -30.32517,-4.95376 -18.75198,-5.17912 -30.72793,-8.85499 -43.28345,-13.12728 -11.12014,-3.78387 -20.5327,-8.47585 -20.5327,-8.47585 l -12.77381,20.39288 c 0,0 -46.56189,12.16538 -72.582735,23.8145 -48.50905,21.71673 -91.5638199,50.14897 -91.5638199,50.14897 0,0 55.2050199,-27.02345 106.1688949,-43.90581 34.383,-11.38975 74.09546,-14.63037 74.09546,-14.63037 0,0 32.71573,33.71519 79.12021,57.12373 37.48451,18.9089 85.19531,28.54719 121.72791,28.08419 56.43638,-0.71525 114.35337,-28.36469 150.4813,-52.86669 13.9132,-9.43595 37.28398,-32.46884 37.28398,-32.46884 0,0 11.40229,0.82873 33.18165,5.5676 15.68277,3.41235 40.57207,10.10752 52.45965,14.07454 32.23261,10.75637 94.62017,41.97219 94.62017,41.97219 0,0 -43.8217,-31.41972 -72.15604,-44.47918 -11.43643,-5.27112 -31.47813,-13.44885 -48.82092,-19.23411 -23.1911,-7.73615 -42.82823,-12.46628 -42.82823,-12.46628 0,0 29.27506,-43.23663 42.4736,-77.52156 15.39962,-40.00249 15.0149,-73.74054 14.22117,-103.15929 C 640.49074,122.6511 522.641,-1.7008978 381.8274,-0.59279782 252.48962,0.42499218 99.666655,91.147095 105.81094,293.68429 c 0.69427,22.88501 12.29401,57.11768 25.85582,85.45256 10.58331,22.11184 27.85825,48.87903 34.59939,59.02609 l 12.77381,-20.39288 c 0,0 -46.93093,-66.29927 -42.21301,-141.53776 4.71792,-75.23849 30.29404,-118.19643 48.17251,-141.78605 17.87844,-23.58963 52.89042,-55.870175 81.6946,-71.265505 28.80417,-15.39533 47.12118,-21.12383 97.57506,-25.14528 45.17517,-3.60071 117.50711,14.84845 162.58922,54.60639 37.53289,33.100275 65.99109,80.852075 78.82915,125.577525 7.96511,24.95771 10.71657,51.94486 8.98424,84.56234 -1.91503,36.05722 -20.48684,80.0687 -38.82943,115.23665 0,0 -10.92571,4.46961 -39.97821,12.6639 -29.05247,8.19429 -54.13198,11.91897 -54.13198,11.91897 0,0 42.46132,-59.34653 40.47483,-117.20319 -1.98649,-57.85666 -15.85864,-101.30013 -71.01719,-157.92633 -7.2072,-7.39896 -44.69614,-45.19275 -73.50031,-44.69613 -28.80417,0.49663 -81.44629,35.75691 -116.45826,102.30447 -35.01197,66.54758 -32.52885,100.5663 -26.07274,134.33671 3.10213,16.22654 9.41842,33.16614 13.77188,43.69928 1.65997,4.45751 9.25529,19.30537 9.25529,19.30537 l 12.14894,-8.2565 c 0,0 -5.40335,-10.64145 -8.23158,-17.12649 -11.66208,-26.7408 -18.0549,-54.7063 -16.26712,-77.35155 3.72468,-47.17925 35.01197,-64.56108 59.84316,-64.31277 24.83118,0.24831 47.92418,15.14702 52.89042,41.71639 2.95074,19.06558 3.03473,27.59986 2.3277,50.43978 0,7.11111 -2.07109,23.32273 -6.46067,36.22808 -4.38956,12.90535 -6.49657,15.97806 -5.53086,23.44033 0.9657,7.46228 1.93142,9.65707 1.93142,9.65707 0,0 3.07269,-6.32099 11.85185,-15.71468 8.77915,-9.39369 30.63923,-29.32236 48.37312,-39.50617 17.73388,-10.18382 44.84569,-24.19374 54.03323,-37.47842 9.18754,-13.28468 12.9743,-21.60313 12.66391,-25.20365 -5.15909,-1.063 -8.44996,2.96942 -11.12514,7.02226 -5.0919,7.72565 -23.87928,27.03978 -36.34568,34.0631 -12.46639,7.02332 -18.92156,9.88064 -20.03896,10.19103 -1.1174,0.31039 -3.44186,0.58494 -4.91795,-1.78714 -1.47609,-2.37208 -2.90387,-6.09676 -6.41129,-8.26949 -3.50739,-2.17272 -2.04066,-8.58607 -2.2269,-12.62114 -0.0628,-1.36063 -0.0366,-4.11723 0.36897,-7.90408 0.12976,-1.2115 0.69089,-5.12405 0.69089,-5.12405 l -11.35546,-2.26407 c 0,0 -0.20543,4.85929 -0.22313,5.49687 -0.13309,4.79343 -2.37286,6.68774 -6.70173,6.70896 -4.6373,0.0227 -6.04602,-12.21046 -6.74734,-15.59483 -2.05288,-18.25574 -1.25741,-27.65236 -17.23545,-46.26416 -15.97804,-18.6118 -41.96434,-22.12346 -61.45404,-20.01646 -19.48972,2.107 -27.59018,4.34187 -27.59019,4.34187 26.81768,-44.94445 27.2069,-49.67995 56.31309,-77.85455 29.10621,-28.1746 42.76336,-29.91279 47.48128,-31.89928 4.71792,-1.9865 14.34,-0.68286 20.67196,2.11065 6.33195,2.79351 34.57743,19.49248 51.33847,37.80548 16.76106,18.31299 46.8485,53.25708 54.58375,80.42038 3.83294,13.45985 5.61865,17.90947 5.61865,17.90947 0,0 -2.45817,0.17558 -8.77916,-5.09191 -6.32099,-5.26749 -28.44444,-24.05487 -43.72016,-22.82579 -15.27572,1.22908 -29.14678,1.75583 -46.35391,21.42113 -11.55539,13.20616 -15.38913,27.9717 -16.70123,38.076 -0.21005,1.61753 -0.50085,5.25617 -0.50085,5.25617 l 11.35546,2.26407 c 0,0 0.0911,-0.47486 0.25043,-1.34933 1.26015,-6.91537 3.64302,-15.63568 8.05436,-25.02057 8.95475,-19.05075 25.63511,-28.00549 37.39918,-28.79561 11.76406,-0.79013 23.00137,1.84362 38.1893,16.06584 15.18793,14.22222 24.29618,20.3632 25.41358,33.27542 1.11741,12.91221 1.73819,51.71094 -12.6639,85.72966 -14.40209,34.01873 -50.15899,74.74187 -50.15899,74.74187 0,0 -21.6234,8.51809 -41.47821,10.71515 -19.85482,2.19706 -49.14872,1.04462 -68.52394,-3.76242 -19.37523,-4.80704 -19.37523,-4.80704 -19.37524,-4.80704"
         style="fill:#000000;fill-opacity:1;stroke:#000000;stroke-width:8;stroke-linecap:round;stroke-linejoin:round;stroke-miterlimit:4;stroke-dasharray:none;stroke-opacity:1"
         id="path18753"
         sodipodi:nodetypes="csccscssccscscssscsscsscsssssccssssscscscssssscccsssccsscsssccssssssccsscsscssssscsssscccssssscssc" />
      <path
         d="m 419.09151,304.299 c -6.19164,-6.34082 -3.75408,-13.07008 6.63924,-18.32862 6.51422,-3.2959 9.7557,-2.94868 15.19258,1.62738 4.50473,3.7915 5.03241,7.66207 1.76526,12.94843 -2.66755,4.31618 -6.89262,6.35796 -14.34708,6.93327 -5.4904,0.42373 -5.852,0.2994 -9.25,-3.18046 z"
         style="fill:#000000;fill-opacity:1;stroke:#000000;stroke-opacity:1;stroke-width:0;stroke-miterlimit:4;stroke-dasharray:none"
         id="path18922" />
      <path
         d="m 319.44265,304.82499 c -6.19164,-6.34082 -7.79249,-14.29916 2.60083,-19.5577 6.51422,-3.2959 11.77491,-0.6661 17.21179,3.90996 4.50473,3.7915 7.05161,6.60857 3.78446,11.89493 -2.66755,4.31618 -6.89262,6.35796 -14.34708,6.93327 -5.4904,0.42373 -5.852,0.2994 -9.25,-3.18046 z"
         style="display:inline;fill:#000000;fill-opacity:1;stroke:#000000;stroke-opacity:1;stroke-width:0;stroke-miterlimit:4;stroke-dasharray:none"
         id="path18922-0"
         sodipodi:nodetypes="ssssss" />
    </g>
  </g>
</svg>
